<svg width="38" height="38" viewBox="0 0 38 38" fill="none" xmlns="http://www.w3.org/2000/svg">
<rect width="38" height="38" rx="8" fill="#FAB900"/>
<path d="M27 10H11C9.9 10 9 10.9 9 12V24C9 25.1 9.89 26 11 26H15V27C15 27.55 15.45 28 16 28H22C22.55 28 23 27.55 23 27V26H27C28.1 26 29 25.1 29 24V12C29 10.89 28.1 10 27 10ZM27 24H11V12H27V24Z" fill="white"/>
<path d="M21 15.25H13V16.75H21V15.25Z" fill="white"/>
<path d="M23.5 16.75H25V15.25H23.5V14H22V18H23.5V16.75Z" fill="white"/>
<path d="M25 19.25H17V20.75H25V19.25Z" fill="white"/>
<path d="M14.5 22H16V18H14.5V19.25H13V20.75H14.5V22Z" fill="white"/>
</svg>
